<svg xmlns="http://www.w3.org/2000/svg" viewBox="0 0 600 600" role="img" aria-label="AI 트렌드 썸네일">
<defs>
<linearGradient id="g" x1="0" y1="0" x2="0" y2="1">
<stop offset="0" stop-color="#10281A"/><stop offset="0.6" stop-color="#081810"/><stop offset="1" stop-color="#050F0A"/>
</linearGradient>
<radialGradient id="vig" cx="0.5" cy="0.42" r="0.75">
<stop offset="0.6" stop-color="#000000" stop-opacity="0"/><stop offset="1" stop-color="#000000" stop-opacity="0.4"/>
</radialGradient>
<pattern id="tex" width="7" height="7" patternUnits="userSpaceOnUse" patternTransform="rotate(45)">
<line x1="0" y1="0" x2="0" y2="7" stroke="#FFFFFF" stroke-opacity="0.028" stroke-width="1"/>
</pattern>
</defs>
<rect width="600" height="600" fill="url(#g)"/>
<rect width="600" height="600" fill="url(#tex)"/>
<circle cx="120" cy="332" r="1" fill="#9FE3AE" opacity="0.06"/><circle cx="293" cy="463" r="2" fill="#D8C289" opacity="0.06"/><circle cx="466" cy="594" r="1" fill="#D8C289" opacity="0.06"/><circle cx="39" cy="125" r="2" fill="#9FE3AE" opacity="0.06"/><circle cx="212" cy="256" r="1" fill="#D8C289" opacity="0.06"/><circle cx="385" cy="387" r="2" fill="#D8C289" opacity="0.06"/><circle cx="558" cy="518" r="1" fill="#9FE3AE" opacity="0.06"/><circle cx="131" cy="49" r="2" fill="#D8C289" opacity="0.06"/><circle cx="304" cy="180" r="1" fill="#D8C289" opacity="0.06"/><circle cx="477" cy="311" r="2" fill="#9FE3AE" opacity="0.06"/><circle cx="50" cy="442" r="1" fill="#D8C289" opacity="0.06"/><circle cx="223" cy="573" r="2" fill="#D8C289" opacity="0.06"/><circle cx="396" cy="104" r="1" fill="#9FE3AE" opacity="0.06"/><circle cx="569" cy="235" r="2" fill="#D8C289" opacity="0.06"/>
<rect width="600" height="600" fill="url(#vig)"/>
<text x="300" y="84" text-anchor="middle" font-family="'IBM Plex Mono',Consolas,monospace" font-size="13" letter-spacing="7" fill="#B9C7B4" opacity="0.75">SAENRU INSIGHT</text>
<line x1="272" y1="104" x2="328" y2="104" stroke="#D8C289" stroke-width="1" opacity="0.55"/>
<g transform="translate(300,235)">
    <rect x="-15" y="-52" width="30" height="62" rx="15" fill="none" stroke="#D8C289" stroke-width="3"/>
    <path d="M -32 -4 A 32 32 0 0 0 32 -4" fill="none" stroke="#D8C289" stroke-width="3" stroke-linecap="round"/>
    <line x1="0" y1="28" x2="0" y2="48" stroke="#D8C289" stroke-width="3" stroke-linecap="round"/>
    <line x1="-18" y1="48" x2="18" y2="48" stroke="#D8C289" stroke-width="3" stroke-linecap="round"/>
    <path d="M 46 -26 A 26 26 0 0 1 46 14" fill="none" stroke="#9FE3AE" stroke-width="3" stroke-linecap="round" opacity="0.85"/>
    <path d="M 58 -36 A 40 40 0 0 1 58 24" fill="none" stroke="#9FE3AE" stroke-width="3" stroke-linecap="round" opacity="0.45"/>
</g>
<text x="300" y="404" text-anchor="middle" font-family="Georgia,'Times New Roman',serif" font-weight="700" font-size="56" letter-spacing="2" fill="#EDE7D4">Voice</text>
<text x="300" y="456" text-anchor="middle" font-family="Georgia,'Times New Roman',serif" font-style="italic" font-size="40" letter-spacing="1" fill="#D8C289">Agent</text>
<text x="300" y="512" text-anchor="middle" font-family="'Noto Sans KR','Apple SD Gothic Neo','Malgun Gothic',sans-serif" font-size="17" fill="#CFDCCB" opacity="0.85">전화 받는 AI, 우리 가게도 쓸 수 있을까?</text>
<line x1="272" y1="542" x2="328" y2="542" stroke="#D8C289" stroke-width="1" opacity="0.4"/>
<text x="300" y="570" text-anchor="middle" font-family="'IBM Plex Mono',Consolas,monospace" font-size="12" letter-spacing="5" fill="#8FA98F">AI 트렌드</text>
</svg>
